<svg width="2320" height="1200" viewBox="0 0 2320 1200" fill="none" xmlns="http://www.w3.org/2000/svg">
<path d="M2320 1200H2147.77C2139.96 1190.48 2131.64 1180.93 2122.82 1171.34C2099.27 1145.23 2073.67 1119.89 2046.02 1095.31C2042.69 1092.35 2039.35 1089.41 2036 1086.49C2046.47 1074.84 2056.47 1063.19 2065.99 1051.53C2091.07 1020.81 2110.79 990.863 2125.12 961.679L2050.63 927.887C2036.8 946.831 2018.88 969.102 1996.87 994.702C1987.01 1005.94 1976.48 1017.37 1965.29 1029.02C1964.04 1028.07 1962.79 1027.13 1961.54 1026.19C1932.87 1004.69 1904.71 985.742 1877.06 969.358C1849.92 952.974 1825.09 940.431 1802.56 931.727L1730.37 1006.22C1748.8 1021.58 1769.28 1039.5 1791.81 1059.98C1814.62 1079.75 1837.18 1101.78 1859.48 1126.06C1849.92 1133.62 1840.16 1141.03 1830.21 1148.3C1803.59 1168.06 1776.42 1185.29 1748.72 1200H1666.27C1665.53 1173.29 1664.91 1147.61 1664.41 1122.96C1663.39 1071.76 1663.39 1022.09 1664.41 973.967C1665.44 925.839 1667.48 876.687 1670.56 826.511C1673.63 776.335 1678.24 722.831 1684.38 665.999L1485.47 691.343C1485.47 759.439 1486.75 826.511 1489.31 892.559C1489.94 908.586 1490.67 924.643 1491.51 940.731C1434.48 959.058 1388.69 981.656 1354.14 1008.53C1317.79 1037.2 1291.68 1067.66 1275.81 1099.92C1259.93 1131.66 1252 1162.13 1252 1191.31C1252 1194.27 1252.07 1197.16 1252.21 1200H1120L1720 0L2320 1200ZM1496.8 1024.01C1498.45 1046.19 1500.31 1068.42 1502.37 1090.7C1502.9 1096.05 1503.45 1101.42 1504.01 1106.8C1502.44 1119.03 1499.59 1129.28 1495.45 1137.55C1489.31 1150.35 1481.37 1159.57 1471.65 1165.2C1461.92 1170.32 1451.93 1172.88 1441.69 1172.88C1430.94 1172.88 1421.21 1168.53 1412.51 1159.82C1404.32 1151.12 1400.22 1139.85 1400.22 1126.03C1400.22 1118.86 1402.53 1109.9 1407.13 1099.15C1412.25 1088.4 1420.45 1077.13 1431.71 1065.36C1443.49 1053.58 1459.1 1042.57 1478.56 1032.33C1484.24 1029.34 1490.32 1026.57 1496.8 1024.01Z" fill="#FFD400"/>
<path d="M0 1199.83V679.999L109.71 707.075V1104.87H332.171V1199.83H0Z" fill="#333333"/>
<path d="M580.159 1199.83C540.126 1199.83 505.667 1191.98 476.783 1176.27C448.067 1160.41 425.939 1138 410.399 1109.04C394.859 1079.93 387.089 1045.49 387.089 1005.74C387.089 966.975 394.859 932.951 410.399 903.671C425.939 874.391 447.814 851.572 476.023 835.214C504.4 818.856 537.677 810.677 575.851 810.677C601.526 810.677 625.428 814.685 647.556 822.7C669.852 830.552 689.277 842.411 705.831 858.278C722.554 874.145 735.56 894.102 744.85 918.147C754.141 942.03 758.786 970.001 758.786 1002.06V1030.77L493.133 1031.02V965.994H656.677C656.677 950.945 653.805 937.613 647.049 925.999C640.292 914.385 630.917 905.307 618.924 898.764C607.1 892.057 593.334 888.704 577.625 888.704C561.24 888.704 546.714 892.384 534.045 899.745C521.545 906.942 511.748 916.675 504.654 928.944C497.559 941.048 493.928 954.543 493.759 969.429V1031.02C493.759 1049.66 497.306 1065.78 504.4 1079.35C511.664 1092.93 521.883 1103.4 535.058 1110.76C548.234 1118.12 563.858 1121.8 581.932 1121.8C593.925 1121.8 604.905 1120.17 614.871 1116.89C624.837 1113.62 633.367 1108.72 640.461 1102.17C647.556 1095.63 652.961 1087.61 656.677 1078.13L756.505 1084.51C751.438 1107.73 741.05 1128.02 725.341 1145.36C709.801 1162.53 689.7 1175.95 665.038 1185.6C640.546 1195.08 612.252 1199.83 580.159 1199.83Z" fill="#333333"/>
<path d="M1060 815.585L1036.23 894.102H815.096L790.643 815.585H1060ZM855.067 734.569L963.004 707.075V1076.65C963.004 1086.3 964.524 1093.83 967.564 1099.23C970.605 1104.46 974.828 1108.14 980.233 1110.27C985.807 1112.4 992.226 1113.46 999.489 1113.46C1004.56 1113.46 1009.62 1113.05 1014.69 1112.23C1019.76 1111.25 1023.64 1110.51 1026.35 1110.02L1043.32 1187.8C1037.92 1189.44 1030.32 1191.32 1020.52 1193.45C1010.72 1195.74 992.135 1199.34 978.115 1199.83C952.102 1200.81 924.35 1197.56 904.756 1189.87C885.331 1182.18 876.85 1174.2 866.039 1158C855.229 1141.81 854.898 1115.09 855.067 1090.39V734.569Z" fill="#333333"/>
</svg>
