<svg width="676" height="400" viewBox="0 0 676 400" fill="none" xmlns="http://www.w3.org/2000/svg">
<path d="M626.001 350H582.944C580.99 347.621 578.91 345.233 576.705 342.836C570.817 336.308 564.418 329.972 557.506 323.828C556.673 323.087 555.837 322.353 555 321.623C557.619 318.71 560.118 315.797 562.497 312.884C568.769 305.204 573.697 297.716 577.281 290.42L558.657 281.972C555.201 286.708 550.722 292.276 545.218 298.676C542.753 301.484 540.121 304.344 537.322 307.255C537.01 307.019 536.698 306.782 536.386 306.548C529.218 301.172 522.178 296.436 515.266 292.34C508.482 288.244 502.274 285.108 496.642 282.932L478.594 301.556C483.202 305.396 488.321 309.876 493.953 314.996C499.655 319.938 505.294 325.445 510.871 331.516C508.481 333.405 506.042 335.259 503.554 337.076C496.896 342.016 490.102 346.322 483.175 350H462.568C462.383 343.323 462.228 336.903 462.104 330.74C461.848 317.94 461.848 305.524 462.104 293.492C462.36 281.46 462.872 269.172 463.64 256.628C464.408 244.084 465.56 230.708 467.096 216.5L417.368 222.836C417.368 239.86 417.688 256.628 418.328 273.14C418.485 277.147 418.668 281.161 418.878 285.184C404.62 289.765 393.173 295.414 384.536 302.132C375.448 309.3 368.92 316.916 364.952 324.98C360.984 332.916 359 340.532 359 347.828C359 348.568 359.018 349.292 359.053 350H326L476 50L626.001 350ZM420.2 306.005C420.614 311.547 421.078 317.104 421.592 322.676C421.725 324.011 421.863 325.351 422.002 326.695C421.611 329.754 420.899 332.318 419.864 334.388C418.328 337.588 416.344 339.892 413.912 341.3C411.48 342.58 408.984 343.22 406.424 343.22C403.736 343.22 401.304 342.132 399.128 339.956C397.08 337.78 396.056 334.964 396.056 331.508C396.056 329.716 396.632 327.476 397.784 324.788C399.064 322.1 401.112 319.284 403.928 316.34C406.872 313.396 410.776 310.644 415.64 308.084C417.061 307.336 418.582 306.644 420.2 306.005Z" fill="#FFD400"/>
<path d="M50 348.152V222H76.9196V326.162H131.505V348.152H50Z" fill="#333333"/>
<path d="M192.353 350C182.531 350 174.076 348.029 166.988 344.087C159.942 340.103 154.513 334.477 150.7 327.209C146.887 319.899 144.98 311.255 144.98 301.276C144.98 291.544 146.887 283.002 150.7 275.652C154.513 268.301 159.88 262.572 166.802 258.466C173.765 254.359 181.93 252.306 191.297 252.306C197.596 252.306 203.461 253.312 208.891 255.324C214.362 257.295 219.128 260.273 223.19 264.256C227.293 268.239 230.484 273.249 232.764 279.286C235.043 285.281 236.183 292.303 236.183 300.352V307.559H155.549V291.297H211.253C211.253 287.519 210.424 284.173 208.766 281.257C207.108 278.341 204.808 276.062 201.865 274.42C198.964 272.736 195.586 271.894 191.732 271.894C187.711 271.894 184.147 272.818 181.039 274.666C177.972 276.473 175.568 278.916 173.827 281.996C172.086 285.035 171.195 288.423 171.154 292.16V307.621C171.154 312.302 172.024 316.347 173.765 319.756C175.547 323.164 178.054 325.792 181.287 327.64C184.52 329.488 188.354 330.412 192.789 330.412C195.731 330.412 198.425 330.001 200.871 329.18C203.316 328.359 205.409 327.127 207.15 325.484C208.891 323.842 210.217 321.829 211.129 319.448L235.624 321.049C234.38 326.88 231.831 331.972 227.977 336.325C224.164 340.637 219.232 344.004 213.18 346.427C207.171 348.809 200.228 350 192.353 350Z" fill="#333333"/>
<path d="M304.259 253.538V273.249H246.752V253.538H304.259ZM259.808 230.87H286.292V319.078C286.292 321.501 286.665 323.39 287.411 324.745C288.157 326.059 289.193 326.983 290.52 327.517C291.887 328.051 293.462 328.318 295.245 328.318C296.488 328.318 297.731 328.215 298.975 328.01C300.218 327.763 301.171 327.578 301.835 327.455L306 346.982C304.674 347.392 302.809 347.865 300.405 348.398C298.001 348.973 295.079 349.322 291.639 349.446C285.256 349.692 279.661 348.85 274.853 346.92C270.087 344.99 266.377 341.992 263.724 337.927C261.072 333.861 259.766 328.728 259.808 322.527V230.87Z" fill="#333333"/>
</svg>
